# xmcd
#
# Track frame offsets: 
#        150
#        18411
#        40425
#        61545
#        82801
#        101716
#        127248
#        143194
#        158973
#        184713
#
# Disc length: 2821 seconds
#
# Revision: 0
# Processed by: cddbd v1.5.2PL0 Copyright (c) Steve Scherf et al.
# Submitted via: ExactAudioCopy v1.0b3
#
DISCID=810b030a
DTITLE=Various Artist - Hay Mang Den Mua Xuan
DYEAR=2000
DGENRE=
TTITLE0=Huy Vu - Doan Xuan ca
TTITLE1=Truc Quyen - Xuan goi
TTITLE2=Quang Toan - Hay mang den nhung mua Xuan
TTITLE3=Mong Thi - Don Xuan nay nho Xuan xua
TTITLE4=Truc Quyen - Mua Xuan do co anh
TTITLE5=Huy Vu - Hoi nang Xuan (Co Tham vui Xuan)
TTITLE6=Truc Quyen - Phao hoa Xuan
TTITLE7=Quang Toan - Tinh Xuan
TTITLE8=Truc Quyen - Duyen tinh
TTITLE9=Truc Quyen - Dam cuoi tren duong que
EXTD=
EXTT0=
EXTT1=
EXTT2=
EXTT3=
EXTT4=
EXTT5=
EXTT6=
EXTT7=
EXTT8=
EXTT9=
PLAYORDER=
